<svg xmlns="http://www.w3.org/2000/svg" xmlns:xlink="http://www.w3.org/1999/xlink" width="24" height="19" viewBox="0 0 24 19"><defs><style>.a{fill:none;}.b{clip-path:url(#a);}.c{clip-path:url(#b);}.d{fill:#595959;}</style><clipPath id="a"><rect class="a" width="24" height="19"/></clipPath><clipPath id="b"><path class="a" d="M24,0H0V19H24Z" transform="translate(24 19) rotate(180)"/></clipPath></defs><g class="b"><g transform="translate(24 19) rotate(180)"><path class="a" d="M24,0H0V19H24Z" transform="translate(24 19) rotate(180)"/><g class="c"><path class="d" d="M.146,9.146l9-9a.5.5,0,0,1,.707.707L1.707,9H20.5a.5.5,0,0,1,0,1H1.707l8.146,8.146a.5.5,0,1,1-.707.707l-9-9a.5.5,0,0,1-.108-.545A.489.489,0,0,1,.146,9.146Z" transform="translate(24 19) rotate(180)"/></g></g></g></svg>