<svg xmlns="http://www.w3.org/2000/svg" width="58.696" height="34.322" viewBox="0 0 58.696 34.322"><defs><style>.a,.b{fill:none;stroke:#fff;stroke-linecap:round;}.a{stroke-miterlimit:10;}</style></defs><g transform="translate(-152.695 -93.712)"><g transform="translate(-1185.557 -588.733)"><g transform="translate(1349 683.001)"><path class="a" d="M232.19,430.692a16.617,16.617,0,1,1-4.6-8.559" transform="translate(-199.27 -417.313)"/><path class="a" d="M217.769,441.7l5.222,5.126L238.9,432.606" transform="translate(-207.69 -424.274)"/><path class="a" d="M259.51,429l.926-.865" transform="translate(-226.385 -422.241)"/></g></g><g transform="translate(153.195 98)"><path class="b" d="M.5.5V5.2" transform="translate(1.848 -0.5)"/><g transform="translate(0 2.348) rotate(-90)"><path class="b" d="M0,0V4.7" transform="translate(0)"/></g></g><g transform="translate(206.195 115)"><path class="b" d="M.5.5V5.2" transform="translate(1.848 -0.5)"/><g transform="translate(0 2.348) rotate(-90)"><path class="b" d="M0,0V4.7" transform="translate(0)"/></g></g></g></svg>