<svg xmlns="http://www.w3.org/2000/svg" width="26.832" height="26.796" viewBox="0 0 26.832 26.796"><defs><style>.a,.b{fill:none;}.a{stroke:#11bea9;}.b{stroke:#595959;stroke-linecap:round;stroke-linejoin:round;}</style></defs><g transform="translate(0.533 0.5)"><line class="a" x2="5.971" y2="9.703" transform="translate(2.891 0.931)"/><line class="a" x2="9.703" y2="5.971" transform="translate(15.252 17.018)"/><path class="b" d="M1240.4,829.478a1.979,1.979,0,0,0-.981-1.465l-6.363-3.664a2,2,0,0,0-2.4.318l-1.253,1.252a.928.928,0,0,1-.653.271.912.912,0,0,1-.575-.2,36.7,36.7,0,0,1-5.492-5.491.918.918,0,0,1,.068-1.228l1.253-1.253a2,2,0,0,0,.318-2.4l-3.664-6.362a1.979,1.979,0,0,0-1.466-.981,2.023,2.023,0,0,0-.267-.018,1.971,1.971,0,0,0-1.4.584l-1.892,1.888c-1.319,1.318-1.34,3.728-.06,6.788a33.291,33.291,0,0,0,15.587,15.584,10.64,10.64,0,0,0,3.993.945h0a3.81,3.81,0,0,0,2.8-1l1.888-1.888A1.982,1.982,0,0,0,1240.4,829.478Z" transform="translate(-1214.626 -808.252)"/></g></svg>