<svg xmlns="http://www.w3.org/2000/svg" width="12.612" height="27.211" viewBox="0 0 12.612 27.211"><defs><style>.a,.d{fill:#fff;}.a{stroke:#595959;stroke-linejoin:round;fill-rule:evenodd;}.a,.c,.d,.e{stroke-linecap:round;}.b,.c,.e{fill:none;}.b,.d,.e{stroke:#00baa4;}.c{stroke:#11bea9;}</style></defs><g transform="translate(0.5 0.499)"><path class="a" d="M1196.988,816.421v-6.175c0-1.742-.09-1.62,1.694-1.62h4.8c1.781,0,1.694-.122,1.694,1.62v6.175" transform="translate(-1195.44 -808.624)"/><path class="a" d="M1206.6,833.609a3.307,3.307,0,0,1-3.335,3.259h-4.942a3.307,3.307,0,0,1-3.335-3.259V820.885a3.309,3.309,0,0,1,3.335-3.26h4.942a3.308,3.308,0,0,1,3.335,3.26Z" transform="translate(-1194.988 -810.656)"/><path class="b" d="M1202.237,834.394h0a.86.86,0,0,1,.86.86h0a.86.86,0,0,1-.86.86h0a.86.86,0,0,1-.86-.86h0A.86.86,0,0,1,1202.237,834.394Z" transform="translate(-1196.431 -812.894)"/><g transform="translate(4.096 2.062)"><line class="c" y2="3.097"/><line class="c" y2="3.097" transform="translate(3.097)"/></g><path class="d" d="M1204.054,833.164a2.7,2.7,0,0,0-4.421,0" transform="translate(-1196.037 -813.13)"/><path class="e" d="M1204.8,831.114a4.257,4.257,0,0,0-6.519-.033" transform="translate(-1195.731 -813.355)"/><path class="e" d="M1205.511,828.544a5.2,5.2,0,0,0-8.535,0" transform="translate(-1195.437 -812.619)"/></g></svg>